<?xml version="1.0" encoding="iso-8859-1"?>
<!-- Uploaded to: SVG Repo, www.svgrepo.com, Generator: SVG Repo Mixer Tools -->
<svg height="800px" width="800px" version="1.1" id="Layer_1" xmlns="http://www.w3.org/2000/svg" xmlns:xlink="http://www.w3.org/1999/xlink" 
	 viewBox="0 0 512 512" xml:space="preserve">
<g>
	<path style="fill:#FF6464;" d="M377.689,339.174l38.057,104.561c3.99,10.963-4.625,22.403-16.264,21.597l-54.7-4.341
		l-39.113,38.486c-8.397,8.099-22.351,4.873-26.341-6.091L255.534,427l18-48L377.689,339.174z"/>
	<path style="fill:#FF6464;" d="M272.327,382.882l-40.221,110.504c-3.99,10.964-17.943,14.189-26.341,6.091l-39.113-38.487
		l-54.701,4.341c-11.639,0.807-20.254-10.634-16.264-21.597l38.132-104.767L272.327,382.882z"/>
</g>
<g>
	<path style="fill:#D2555A;" d="M333.941,434.2L333.941,434.2c-4.213,1.331-8.707-1.006-10.038-5.219l-48.192-152.569
		c-1.331-4.213,1.005-8.708,5.219-10.038l0,0c4.213-1.331,8.707,1.005,10.038,5.219l48.192,152.569
		C340.491,428.375,338.154,432.869,333.941,434.2z"/>
	<path style="fill:#D2555A;" d="M177.228,434.744L177.228,434.744c4.131,1.567,8.75-0.511,10.318-4.642l56.772-149.589
		c1.567-4.131-0.51-8.75-4.641-10.317v-0.001c-4.131-1.567-8.75,0.511-10.318,4.642l-56.772,149.589
		C171.02,428.557,173.097,433.176,177.228,434.744z"/>
</g>
<path style="fill:#FFD782;" d="M445.534,197.531c0,12.389-9.203,23.711-11.52,35.42c-2.387,12.064,1.738,26.036-2.865,37.136
	c-4.684,11.293-17.526,18.234-24.247,28.272c-6.772,10.114-8.31,24.62-16.885,33.195s-23.082,10.111-33.196,16.883
	c-10.037,6.719-16.978,19.561-28.27,24.243c-11.099,4.603-25.068,0.478-37.132,2.863c-11.708,2.316-23.029,11.519-35.417,11.519
	c-12.389,0-23.711-9.203-35.42-11.519c-12.064-2.387-26.036,1.737-37.136-2.866c-11.293-4.684-18.235-17.525-28.272-24.246
	c-10.114-6.771-24.62-8.31-33.195-16.886c-8.575-8.575-10.112-23.081-16.883-33.195c-6.719-10.037-19.561-16.979-24.243-28.271
	c-4.603-11.099-0.477-25.068-2.863-37.131c-2.316-11.708-11.519-23.03-11.519-35.418c0-12.389,9.203-23.711,11.519-35.419
	c2.387-12.065-1.737-26.036,2.866-37.137c4.684-11.293,17.526-18.234,24.246-28.272c6.771-10.113,8.31-24.619,16.885-33.194
	s23.082-10.112,33.196-16.884c10.037-6.719,16.979-19.561,28.271-24.242c11.099-4.603,25.068-0.478,37.131-2.864
	C232.293,17.203,243.615,8,256.002,8c12.389,0,23.711,9.203,35.419,11.52c12.064,2.387,26.036-1.738,37.136,2.865
	c11.293,4.684,18.234,17.526,28.272,24.246c10.114,6.772,24.62,8.311,33.195,16.886s10.112,23.081,16.883,33.196
	c6.719,10.036,19.561,16.978,24.243,28.27c4.602,11.099,0.477,25.068,2.864,37.132C436.331,173.822,445.534,185.144,445.534,197.531
	z"/>
<circle style="fill:#FFC36E;" cx="255.532" cy="198" r="154"/>
<circle style="fill:#FFE3A8;" cx="255.532" cy="198" r="130"/>
<g>
	<path style="fill:#2D2B29;" d="M446.701,173.531c-2.078-4.596-4.041-8.937-4.838-12.97c-0.844-4.267-0.693-9.162-0.533-14.346
		c0.249-8.04,0.505-16.354-2.789-24.298c-3.358-8.098-9.757-14.091-15.402-19.378c-3.725-3.489-7.243-6.784-9.583-10.278
		c-2.377-3.551-4.099-8.098-5.922-12.911c-2.859-7.549-5.816-15.355-11.951-21.49c-6.136-6.137-13.942-9.094-21.491-11.953
		c-4.813-1.823-9.36-3.546-12.911-5.923c-3.495-2.34-6.79-5.858-10.278-9.584c-5.288-5.646-11.281-12.047-19.38-15.405
		c-7.945-3.295-16.26-3.04-24.301-2.79c-5.183,0.159-10.08,0.312-14.347-0.533c-4.034-0.798-8.375-2.761-12.972-4.839
		C272.92,3.63,264.892,0,256.002,0c-8.889,0-16.916,3.63-23.999,6.832c-4.596,2.078-8.938,4.041-12.972,4.839
		c-4.267,0.845-9.164,0.693-14.347,0.532c-8.039-0.244-16.352-0.505-24.296,2.789c-8.098,3.358-14.091,9.757-19.378,15.403
		c-3.489,3.725-6.784,7.243-10.278,9.582c-3.55,2.377-8.097,4.1-12.911,5.923c-7.549,2.859-15.355,5.815-21.492,11.951
		c-6.136,6.136-9.093,13.941-11.952,21.489c-1.824,4.814-3.546,9.361-5.924,12.912c-2.339,3.494-5.859,6.79-9.583,10.278
		c-5.646,5.288-12.046,11.281-15.404,19.38c-3.295,7.944-3.039,16.26-2.791,24.301c0.16,5.184,0.311,10.08-0.533,14.348
		c-0.798,4.033-2.761,8.374-4.839,12.97c-3.203,7.084-6.833,15.112-6.833,24.002c0,8.889,3.63,16.917,6.833,24
		c2.078,4.596,4.041,8.938,4.838,12.971c0.844,4.266,0.693,9.162,0.533,14.346c-0.248,8.04-0.505,16.354,2.789,24.297
		c3.358,8.098,9.757,14.091,15.402,19.378c3.725,3.489,7.243,6.784,9.583,10.278c2.377,3.551,4.099,8.098,5.922,12.911
		c2.859,7.549,5.816,15.355,11.951,21.49c2.31,2.311,4.856,4.169,7.537,5.743L88.17,440.998c-2.804,7.703-1.534,16.212,3.398,22.761
		c4.931,6.549,12.752,10.119,21.016,9.547l51.06-4.052l36.567,35.981c4.558,4.395,10.542,6.765,16.709,6.765
		c1.817,0,3.651-0.206,5.469-0.626c7.987-1.847,14.43-7.549,17.233-15.252l16.093-44.216l16.093,44.216
		c2.804,7.703,9.246,13.405,17.233,15.252c1.815,0.419,3.646,0.625,5.461,0.625c6.172,0,12.171-2.38,16.774-6.82l36.51-35.925
		l51.139,4.058c8.18,0.572,16.005-3.004,20.937-9.553s6.202-15.057,3.398-22.761l-35.59-97.783c2.85-1.629,5.559-3.562,8-6.003
		c6.136-6.136,9.093-13.941,11.953-21.49c1.824-4.813,3.546-9.36,5.924-12.912c2.339-3.494,5.858-6.79,9.583-10.278
		c5.646-5.288,12.046-11.281,15.404-19.38c3.295-7.944,3.039-16.26,2.791-24.301c-0.16-5.184-0.311-10.08,0.533-14.347
		c0.798-4.033,2.761-8.375,4.839-12.972c3.203-7.083,6.833-15.111,6.833-24.001C453.534,188.643,449.904,180.614,446.701,173.531z
		 M224.588,490.649c-0.958,2.633-3.073,4.505-5.803,5.136c-2.729,0.629-5.451-0.123-7.41-2.011l-39.113-38.486
		c-1.653-1.627-3.931-2.456-6.244-2.272l-54.621,4.335c-2.791,0.191-5.364-0.978-7.049-3.217c-1.685-2.237-2.102-5.031-1.144-7.663
		l35.321-97.043c4.547,1.725,8.824,3.393,12.197,5.651c3.495,2.34,6.79,5.858,10.278,9.584c5.288,5.646,11.281,12.046,19.38,15.404
		c7.945,3.295,16.26,3.037,24.301,2.791c5.184-0.159,10.08-0.312,14.347,0.533c4.034,0.798,8.375,2.761,12.971,4.839
		c7.083,3.202,15.112,6.832,24.001,6.832c1.163,0,2.31-0.065,3.442-0.18L224.588,490.649z M407.084,454.134
		c-1.685,2.237-4.25,3.401-6.969,3.223l-54.701-4.341c-2.309-0.189-4.59,0.645-6.244,2.272l-39.055,38.43
		c-2.016,1.944-4.738,2.698-7.467,2.067s-4.845-2.503-5.803-5.136l-22.615-62.134l14.444-39.686c0.446-0.201,0.889-0.401,1.328-0.6
		c4.596-2.078,8.937-4.041,12.97-4.839c4.267-0.845,9.162-0.693,14.346-0.532c8.04,0.248,16.353,0.505,24.297-2.789
		c8.098-3.358,14.09-9.757,19.377-15.402c3.489-3.725,6.784-7.243,10.279-9.583c3.251-2.177,7.343-3.805,11.706-5.465l35.25,96.851
		C409.186,449.103,408.769,451.896,407.084,454.134z M432.122,214.94c-2.36,5.22-4.8,10.617-5.956,16.458
		c-1.197,6.049-1.01,12.097-0.83,17.945c0.205,6.642,0.398,12.914-1.578,17.679c-2.036,4.909-6.664,9.242-11.562,13.83
		c-4.22,3.951-8.583,8.038-11.942,13.056c-3.396,5.072-5.528,10.701-7.591,16.146c-2.365,6.242-4.599,12.14-8.304,15.844
		s-9.601,5.938-15.844,8.303c-5.444,2.062-11.074,4.193-16.146,7.589c-5.019,3.359-9.104,7.723-13.056,11.942
		c-4.587,4.897-8.919,9.523-13.828,11.56c-4.762,1.975-11.034,1.779-17.674,1.576c-5.847-0.183-11.896-0.367-17.946,0.829
		c-5.84,1.155-11.237,3.596-16.456,5.955c-1.468,0.663-2.916,1.317-4.344,1.93c-0.051,0.022-0.102,0.042-0.151,0.065
		c-4.507,1.925-8.816,3.416-12.913,3.416c-5.44,0-11.255-2.629-17.41-5.411c-5.219-2.359-10.616-4.8-16.457-5.955
		c-3.844-0.761-7.687-0.963-11.478-0.963c-2.176,0-4.335,0.066-6.467,0.133c-6.643,0.202-12.915,0.398-17.679-1.578
		c-4.91-2.036-9.243-6.663-13.831-11.563c-3.951-4.219-8.037-8.582-13.055-11.941c-5.071-3.396-10.7-5.528-16.144-7.59
		c-6.243-2.365-12.141-4.6-15.845-8.305s-5.938-9.602-8.303-15.845c-2.062-5.443-4.194-11.073-7.589-16.145
		c-3.359-5.019-7.722-9.104-11.942-13.056c-4.897-4.587-9.524-8.92-11.56-13.829c-1.975-4.763-1.781-11.034-1.576-17.674
		c0.181-5.849,0.367-11.896-0.829-17.945c-1.156-5.841-3.596-11.237-5.956-16.457c-2.783-6.155-5.412-11.969-5.412-17.408
		c0-5.44,2.629-11.255,5.413-17.41c2.36-5.219,4.8-10.615,5.956-16.456c1.196-6.05,1.01-12.098,0.83-17.946
		c-0.205-6.642-0.398-12.914,1.578-17.679c2.036-4.909,6.663-9.242,11.562-13.83c4.22-3.951,8.583-8.038,11.942-13.056
		c3.396-5.072,5.529-10.701,7.591-16.145c2.365-6.243,4.599-12.14,8.304-15.844c3.705-3.705,9.602-5.938,15.846-8.304
		c5.443-2.062,11.072-4.193,16.144-7.589c5.018-3.359,9.104-7.723,13.055-11.941c4.587-4.898,8.92-9.524,13.828-11.561
		c4.763-1.975,11.033-1.782,17.674-1.575c5.848,0.179,11.896,0.367,17.945-0.83c5.842-1.155,11.239-3.596,16.459-5.955
		c6.155-2.782,11.968-5.41,17.407-5.41c5.44,0,11.254,2.629,17.409,5.412c5.22,2.359,10.617,4.8,16.458,5.955
		c6.05,1.197,12.097,1.01,17.946,0.83c6.642-0.207,12.915-0.398,17.678,1.577c4.91,2.036,9.243,6.663,13.831,11.563
		c3.951,4.22,8.037,8.582,13.056,11.942c5.071,3.396,10.701,5.528,16.144,7.59c6.243,2.365,12.14,4.599,15.845,8.305
		c3.705,3.704,5.938,9.601,8.302,15.844c2.062,5.444,4.194,11.073,7.589,16.145c3.359,5.019,7.722,9.104,11.941,13.056
		c4.898,4.587,9.524,8.92,11.56,13.829c1.976,4.763,1.782,11.034,1.577,17.675c-0.181,5.849-0.368,11.896,0.829,17.945
		c1.155,5.841,3.595,11.237,5.955,16.456c2.783,6.155,5.412,11.969,5.412,17.408C437.534,202.972,434.905,208.785,432.122,214.94z"
		/>
	<path style="fill:#2D2B29;" d="M134.96,197.531c0-66.743,54.3-121.042,121.043-121.042c18.581,0,36.402,4.096,52.971,12.174
		c3.971,1.934,8.761,0.285,10.697-3.686c1.936-3.972,0.286-8.761-3.685-10.697c-18.772-9.151-38.953-13.791-59.984-13.791
		c-75.566,0-137.043,61.477-137.043,137.042c0,31.06,10.68,61.484,30.071,85.669c1.58,1.971,3.902,2.995,6.246,2.995
		c1.756,0,3.523-0.575,5-1.759c3.447-2.764,4.001-7.799,1.237-11.246C144.142,251.525,134.96,225.363,134.96,197.531z"/>
	<path style="fill:#2D2B29;" d="M368.595,133.933c-3.972,1.934-5.625,6.722-3.691,10.694c8.056,16.551,12.141,34.351,12.141,52.904
		c0,66.743-54.299,121.043-121.042,121.043c-27.828,0-53.987-9.18-75.652-26.548c-3.447-2.764-8.482-2.209-11.246,1.238
		s-2.209,8.482,1.238,11.246c24.184,19.387,54.604,30.063,85.66,30.063c75.565,0,137.042-61.478,137.042-137.043
		c0-21.001-4.628-41.156-13.755-59.906C377.356,133.652,372.569,131.998,368.595,133.933z"/>
	<path style="fill:#2D2B29;" d="M336.039,106.726c3.791,3.343,7.411,6.962,10.76,10.757c1.581,1.792,3.786,2.707,6.001,2.707
		c1.881,0,3.77-0.659,5.291-2.002c3.313-2.923,3.628-7.979,0.705-11.291c-3.788-4.293-7.883-8.388-12.172-12.171
		c-3.313-2.921-8.369-2.605-11.292,0.708S332.726,103.803,336.039,106.726z"/>
	<path style="fill:#2D2B29;" d="M256.677,141.01c17.825,0,32.326,10.884,32.326,24.261c0,4.418,3.582,8,8,8s8-3.582,8-8
		c0-19.929-17.474-36.513-40.326-39.699v-8.691c0-4.418-3.581-8-8-8c-4.418,0-8,3.582-8,8v8.691
		c-22.851,3.187-40.326,19.771-40.326,39.699c0,22.2,21.679,40.261,48.326,40.261c17.825,0,32.326,10.884,32.326,24.261
		s-14.501,24.261-32.326,24.261c-17.824,0-32.326-10.884-32.326-24.261c0-4.418-3.582-8-8-8s-8,3.582-8,8
		c0,19.929,17.475,36.513,40.326,39.699v8.691c0,4.418,3.582,8,8,8c4.419,0,8-3.582,8-8v-8.691
		c22.852-3.187,40.326-19.771,40.326-39.699c0-22.2-21.679-40.261-48.326-40.261c-17.824,0-32.326-10.884-32.326-24.261
		S238.853,141.01,256.677,141.01z"/>
</g>
</svg>