<svg width="370" height="82" viewBox="0 0 370 82" fill="none" xmlns="http://www.w3.org/2000/svg">
<mask id="mask0_955_386" style="mask-type:luminance" maskUnits="userSpaceOnUse" x="0" y="51" width="364" height="31">
<path d="M0.473938 51.3646H363.474V81.3646H0.473938V51.3646Z" fill="white"/>
</mask>
<g mask="url(#mask0_955_386)">
<path d="M3.125 67.5261C77.8646 57.875 213.474 42.5104 360.823 77.0781" stroke="#FFC6B5" stroke-width="8.62132"/>
</g>
<path d="M16.4622 46.0233C13.0039 46.0233 9.99345 45.2056 7.44137 43.565C4.88407 41.914 3.12887 39.6796 2.17053 36.8567L8.00387 34.065C8.8372 35.8879 9.99345 37.315 11.483 38.3567C12.9674 39.3879 14.6289 39.8983 16.4622 39.8983C17.8893 39.8983 19.0247 39.5858 19.858 38.9608C20.6914 38.3254 21.108 37.4817 21.108 36.44C21.108 35.815 20.9309 35.2942 20.5872 34.8775C20.2539 34.4608 19.7955 34.1067 19.2122 33.815C18.6393 33.5129 18.0247 33.2525 17.358 33.0442L12.0455 31.565C9.30595 30.7733 7.23303 29.565 5.81637 27.94C4.41012 26.315 3.7122 24.3931 3.7122 22.1692C3.7122 20.1848 4.21741 18.4504 5.23303 16.9608C6.24345 15.4765 7.65491 14.315 9.4622 13.4817C11.2643 12.6483 13.3424 12.2317 15.6914 12.2317C18.7435 12.2317 21.4414 12.9712 23.7747 14.44C26.1185 15.8983 27.7851 17.9556 28.7747 20.6067L22.8164 23.4192C22.2591 21.9504 21.3268 20.7733 20.0247 19.8983C18.7174 19.0233 17.2539 18.5858 15.6289 18.5858C14.3059 18.5858 13.2747 18.8879 12.5247 19.4817C11.7747 20.0806 11.3997 20.8515 11.3997 21.7942C11.3997 22.3931 11.5559 22.914 11.8789 23.3567C12.1966 23.789 12.6393 24.1431 13.2122 24.4192C13.7799 24.7004 14.4466 24.9556 15.2122 25.19L20.3789 26.7525C23.0455 27.5442 25.0976 28.7317 26.5455 30.315C27.9882 31.8983 28.7122 33.8462 28.7122 36.1483C28.7122 38.0962 28.1966 39.8098 27.1705 41.2942C26.1393 42.7837 24.7122 43.94 22.8789 44.7733C21.0559 45.6067 18.9205 46.0233 16.4622 46.0233Z" fill="black"/>
<path d="M34.72 45.315V12.94H42.5325V45.315H34.72ZM34.72 9.31499V0.981659H42.5325V9.31499H34.72Z" fill="black"/>
<path d="M49.7179 45.315V12.94H57.0513V20.44L56.2179 19.19C56.8117 16.8462 57.9992 15.1015 59.7804 13.9608C61.5721 12.8098 63.6763 12.2317 66.0929 12.2317C68.744 12.2317 71.0825 12.9296 73.1138 14.315C75.1398 15.7056 76.4523 17.5233 77.0513 19.7733L74.8429 19.9608C75.8273 17.3775 77.3117 15.4504 79.3013 14.1692C81.2856 12.8775 83.5721 12.2317 86.1554 12.2317C88.4471 12.2317 90.494 12.7473 92.3013 13.7733C94.1033 14.8046 95.52 16.2421 96.5513 18.0858C97.5929 19.9348 98.1138 22.065 98.1138 24.4817V45.315H90.3221V26.3358C90.3221 24.9087 90.0565 23.6796 89.5304 22.6483C89.0148 21.6067 88.3013 20.8046 87.3846 20.2317C86.4783 19.6483 85.3742 19.3567 84.0721 19.3567C82.8325 19.3567 81.7388 19.6483 80.7804 20.2317C79.8325 20.8046 79.1033 21.6067 78.5929 22.6483C78.0773 23.6796 77.8221 24.9087 77.8221 26.3358V45.315H70.0304V26.3358C70.0304 24.9087 69.7648 23.6796 69.2388 22.6483C68.7231 21.6067 67.9992 20.8046 67.0721 20.2317C66.1398 19.6483 65.0408 19.3567 63.7804 19.3567C62.5408 19.3567 61.4471 19.6483 60.4888 20.2317C59.5408 20.8046 58.8117 21.6067 58.3013 22.6483C57.7856 23.6796 57.5304 24.9087 57.5304 26.3358V45.315H49.7179Z" fill="black"/>
<path d="M104.71 57.2108V12.94H112.044V19.3567L111.315 17.7525C112.424 16.0181 113.929 14.664 115.835 13.69C117.752 12.7212 119.96 12.2317 122.46 12.2317C125.513 12.2317 128.273 12.9921 130.731 14.5025C133.19 16.0025 135.138 18.0233 136.585 20.565C138.028 23.0962 138.752 25.9504 138.752 29.1275C138.752 32.2681 138.033 35.1275 136.606 37.7108C135.19 40.2837 133.252 42.3098 130.794 43.7942C128.335 45.2837 125.533 46.0233 122.398 46.0233C120.049 46.0233 117.888 45.5546 115.919 44.6275C113.96 43.7004 112.408 42.3567 111.273 40.6067L112.523 39.065V57.2108H104.71ZM121.502 38.8775C123.294 38.8775 124.882 38.4608 126.273 37.6275C127.658 36.7942 128.736 35.6483 129.502 34.19C130.278 32.7212 130.669 31.0337 130.669 29.1275C130.669 27.2265 130.278 25.5546 129.502 24.1067C128.736 22.6483 127.658 21.4973 126.273 20.6483C124.882 19.789 123.294 19.3567 121.502 19.3567C119.794 19.3567 118.252 19.7733 116.877 20.6067C115.513 21.44 114.445 22.6067 113.669 24.1067C112.903 25.5962 112.523 27.2681 112.523 29.1275C112.523 31.0337 112.903 32.7212 113.669 34.19C114.445 35.6483 115.513 36.7942 116.877 37.6275C118.252 38.4608 119.794 38.8775 121.502 38.8775Z" fill="black"/>
<path d="M144.705 45.315V0.252502H152.518V45.315H144.705Z" fill="black"/>
<path d="M163.64 58.4608C162.765 58.4608 161.911 58.3879 161.078 58.2525C160.245 58.1119 159.484 57.8879 158.807 57.5858V51.0233C159.333 51.1483 159.958 51.2629 160.682 51.3775C161.417 51.5025 162.104 51.565 162.745 51.565C164.536 51.565 165.833 51.1483 166.64 50.315C167.458 49.4817 168.182 48.3879 168.807 47.0442L170.953 42.0442L170.849 48.5858L156.724 12.94H165.12L175.015 39.2525H172.036L181.849 12.94H190.307L176.203 48.5858C175.37 50.6952 174.354 52.4817 173.161 53.94C171.963 55.4088 170.583 56.5285 169.015 57.2942C167.458 58.0702 165.667 58.4608 163.64 58.4608Z" fill="black"/>
<path d="M206.913 46.0233C203.454 46.0233 200.444 45.2056 197.892 43.565C195.334 41.914 193.579 39.6796 192.621 36.8567L198.454 34.065C199.288 35.8879 200.444 37.315 201.933 38.3567C203.418 39.3879 205.079 39.8983 206.913 39.8983C208.34 39.8983 209.475 39.5858 210.308 38.9608C211.142 38.3254 211.558 37.4817 211.558 36.44C211.558 35.815 211.381 35.2942 211.038 34.8775C210.704 34.4608 210.246 34.1067 209.663 33.815C209.09 33.5129 208.475 33.2525 207.808 33.0442L202.496 31.565C199.756 30.7733 197.683 29.565 196.267 27.94C194.86 26.315 194.163 24.3931 194.163 22.1692C194.163 20.1848 194.668 18.4504 195.683 16.9608C196.694 15.4765 198.105 14.315 199.913 13.4817C201.715 12.6483 203.793 12.2317 206.142 12.2317C209.194 12.2317 211.892 12.9712 214.225 14.44C216.569 15.8983 218.235 17.9556 219.225 20.6067L213.267 23.4192C212.709 21.9504 211.777 20.7733 210.475 19.8983C209.168 19.0233 207.704 18.5858 206.079 18.5858C204.756 18.5858 203.725 18.8879 202.975 19.4817C202.225 20.0806 201.85 20.8515 201.85 21.7942C201.85 22.3931 202.006 22.914 202.329 23.3567C202.647 23.789 203.09 24.1431 203.663 24.4192C204.23 24.7004 204.897 24.9556 205.663 25.19L210.829 26.7525C213.496 27.5442 215.548 28.7317 216.996 30.315C218.439 31.8983 219.163 33.8462 219.163 36.1483C219.163 38.0962 218.647 39.8098 217.621 41.2942C216.59 42.7837 215.163 43.94 213.329 44.7733C211.506 45.6067 209.371 46.0233 206.913 46.0233Z" fill="black"/>
<path d="M239.941 45.6692C236.285 45.6692 233.452 44.6692 231.441 42.6692C229.441 40.6692 228.441 37.8463 228.441 34.19V19.8983H222.858V12.94H223.441C225.035 12.94 226.264 12.5233 227.129 11.69C228.004 10.8567 228.441 9.64834 228.441 8.065V5.565H236.254V12.94H243.691V19.8983H236.254V33.7733C236.254 34.8463 236.441 35.7525 236.816 36.5025C237.191 37.2525 237.78 37.8306 238.587 38.2317C239.405 38.6379 240.452 38.8358 241.733 38.8358C242.009 38.8358 242.337 38.815 242.712 38.7733C243.087 38.7317 243.452 38.69 243.816 38.6483V45.315C243.259 45.3983 242.618 45.4713 241.899 45.5442C241.191 45.6275 240.535 45.6692 239.941 45.6692Z" fill="black"/>
<path d="M265.104 46.0233C261.771 46.0233 258.854 45.2733 256.354 43.7733C253.854 42.2629 251.906 40.2212 250.521 37.6483C249.13 35.065 248.438 32.2056 248.438 29.065C248.438 25.815 249.136 22.9348 250.542 20.4192C251.959 17.8931 253.886 15.8983 256.334 14.44C258.776 12.9712 261.505 12.2317 264.521 12.2317C267.063 12.2317 269.292 12.6483 271.209 13.4817C273.136 14.315 274.776 15.4712 276.125 16.94C277.469 18.3983 278.5 20.0754 279.209 21.9608C279.927 23.8358 280.292 25.8671 280.292 28.0442C280.292 28.6015 280.255 29.1796 280.188 29.7733C280.13 30.3723 280.026 30.8931 279.875 31.3358H254.875V25.3775H275.459L271.771 28.1692C272.13 26.3515 272.042 24.7265 271.5 23.2942C270.969 21.8671 270.104 20.7317 268.896 19.8983C267.688 19.065 266.229 18.6483 264.521 18.6483C262.896 18.6483 261.443 19.0598 260.167 19.8775C258.901 20.6848 257.943 21.8723 257.292 23.44C256.636 25.0129 256.386 26.9087 256.542 29.1275C256.386 31.1171 256.656 32.8723 257.354 34.3983C258.047 35.9296 259.073 37.1067 260.438 37.94C261.813 38.7733 263.386 39.19 265.167 39.19C266.959 39.19 268.479 38.815 269.729 38.065C270.979 37.3046 271.959 36.289 272.667 35.0233L278.979 38.1067C278.339 39.664 277.344 41.039 276 42.2317C274.651 43.414 273.052 44.3462 271.209 45.0233C269.36 45.69 267.323 46.0233 265.104 46.0233Z" fill="black"/>
<path d="M301.778 46.0233C298.554 46.0233 295.663 45.2837 293.111 43.7942C290.554 42.3098 288.538 40.289 287.07 37.7317C285.596 35.164 284.861 32.2733 284.861 29.065C284.861 25.8567 285.596 22.9817 287.07 20.44C288.538 17.8983 290.554 15.8983 293.111 14.44C295.663 12.9712 298.554 12.2317 301.778 12.2317C304.08 12.2317 306.221 12.6431 308.195 13.4608C310.179 14.2681 311.893 15.3723 313.341 16.7733C314.799 18.1796 315.841 19.8515 316.466 21.7942L309.632 24.7733C309.033 23.1483 308.028 21.8462 306.611 20.8567C305.205 19.8567 303.596 19.3567 301.778 19.3567C300.07 19.3567 298.549 19.7733 297.216 20.6067C295.893 21.44 294.851 22.5962 294.091 24.065C293.341 25.539 292.966 27.2265 292.966 29.1275C292.966 31.0337 293.341 32.7212 294.091 34.19C294.851 35.6483 295.893 36.7942 297.216 37.6275C298.549 38.4608 300.07 38.8775 301.778 38.8775C303.637 38.8775 305.262 38.3879 306.653 37.3983C308.038 36.414 309.033 35.0858 309.632 33.4192L316.466 36.5025C315.841 38.3358 314.809 39.9765 313.382 41.4192C311.95 42.8671 310.242 43.9973 308.257 44.815C306.268 45.6171 304.111 46.0233 301.778 46.0233Z" fill="black"/>
<path d="M322.359 45.315V0.252502H330.172V19.2942L329.089 18.1692C329.839 16.2265 331.073 14.7525 332.797 13.7525C334.531 12.7421 336.552 12.2317 338.859 12.2317C341.234 12.2317 343.344 12.7473 345.193 13.7733C347.036 14.8046 348.474 16.2421 349.505 18.0858C350.531 19.9348 351.047 22.065 351.047 24.4817V45.315H343.255V26.3358C343.255 24.9088 342.974 23.6796 342.422 22.6483C341.865 21.6067 341.099 20.8046 340.13 20.2317C339.156 19.6483 338.016 19.3567 336.714 19.3567C335.432 19.3567 334.302 19.6483 333.318 20.2317C332.328 20.8046 331.557 21.6067 331.005 22.6483C330.448 23.6796 330.172 24.9088 330.172 26.3358V45.315H322.359Z" fill="black"/>
<path d="M361.34 45.315V36.9817H369.215V45.315H361.34Z" fill="black"/>
</svg>
